<svg width="22" height="21" viewBox="0 0 22 21" fill="none" xmlns="http://www.w3.org/2000/svg">
<path d="M20.5 10.5C20.5 15.7467 16.2467 20 11 20M20.5 10.5C20.5 5.25329 16.2467 1 11 1M20.5 10.5H1.5M11 20C5.75329 20 1.5 15.7467 1.5 10.5M11 20C13.3762 17.3986 14.7266 14.0226 14.8 10.5C14.7266 6.97743 13.3762 3.60144 11 1M11 20C8.62378 17.3986 7.27338 14.0226 7.2 10.5C7.27338 6.97743 8.62378 3.60144 11 1M1.5 10.5C1.5 5.25329 5.75329 1 11 1" stroke="#5D6677" stroke-width="1.5" stroke-linecap="round" stroke-linejoin="round"/>
</svg>
