<svg width="48" height="24" viewBox="0 0 48 24" fill="none" xmlns="http://www.w3.org/2000/svg">
<rect width="48" height="24" rx="12" fill="#BEEDC0"/>
<path d="M10.2389 15.348V12.772H7.66294V11.428H10.2389V8.852H11.5829V11.428H14.1589V12.772H11.5829V15.348H10.2389ZM16.0295 17V15.67H18.4515V8.95L16.1415 9.37V8.166L19.0255 7.2H19.9355V15.67H22.5395V17H16.0295ZM27.686 17.168C27.0047 17.168 26.412 17.042 25.908 16.79C25.404 16.538 25.0073 16.1927 24.718 15.754C24.438 15.3153 24.2747 14.8207 24.228 14.27H25.74C25.8333 14.7273 26.048 15.096 26.384 15.376C26.7293 15.656 27.168 15.796 27.7 15.796C28.3253 15.796 28.82 15.6 29.184 15.208C29.548 14.8067 29.73 14.2933 29.73 13.668C29.73 13.0053 29.5433 12.492 29.17 12.128C28.7967 11.764 28.3207 11.582 27.742 11.582C27.2753 11.582 26.8787 11.6893 26.552 11.904C26.2253 12.1187 25.9687 12.3893 25.782 12.716H24.354L25.194 7.2H30.528V8.572H26.342L25.866 11.078H25.964C26.16 10.854 26.4213 10.6673 26.748 10.518C27.084 10.3687 27.4807 10.294 27.938 10.294C28.61 10.294 29.184 10.4387 29.66 10.728C30.1453 11.0173 30.5187 11.4187 30.78 11.932C31.0413 12.436 31.172 13.01 31.172 13.654C31.172 14.3073 31.0273 14.9 30.738 15.432C30.458 15.964 30.0567 16.3887 29.534 16.706C29.0113 17.014 28.3953 17.168 27.686 17.168ZM34.2185 11.372C33.6119 11.372 33.1125 11.176 32.7205 10.784C32.3285 10.392 32.1325 9.86467 32.1325 9.202C32.1325 8.53933 32.3285 8.012 32.7205 7.62C33.1125 7.228 33.6119 7.032 34.2185 7.032C34.8252 7.032 35.3245 7.228 35.7165 7.62C36.1085 8.012 36.3045 8.53933 36.3045 9.202C36.3045 9.86467 36.1085 10.392 35.7165 10.784C35.3245 11.176 34.8252 11.372 34.2185 11.372ZM34.2185 10.392C34.4892 10.392 34.7272 10.2893 34.9325 10.084C35.1379 9.86933 35.2405 9.57533 35.2405 9.202C35.2405 8.81933 35.1379 8.52533 34.9325 8.32C34.7272 8.11467 34.4892 8.012 34.2185 8.012C33.9479 8.012 33.7099 8.11467 33.5045 8.32C33.2992 8.52533 33.1965 8.81933 33.1965 9.202C33.1965 9.57533 33.2992 9.86933 33.5045 10.084C33.7099 10.2893 33.9479 10.392 34.2185 10.392ZM32.8885 16.174L32.1185 15.418L39.3005 8.026L40.0705 8.782L32.8885 16.174ZM37.9705 17.168C37.3639 17.168 36.8645 16.972 36.4725 16.58C36.0805 16.188 35.8845 15.6607 35.8845 14.998C35.8845 14.3353 36.0805 13.808 36.4725 13.416C36.8645 13.024 37.3639 12.828 37.9705 12.828C38.5772 12.828 39.0765 13.024 39.4685 13.416C39.8605 13.808 40.0565 14.3353 40.0565 14.998C40.0565 15.6607 39.8605 16.188 39.4685 16.58C39.0765 16.972 38.5772 17.168 37.9705 17.168ZM37.9705 16.188C38.2412 16.188 38.4792 16.0853 38.6845 15.88C38.8899 15.6653 38.9925 15.3713 38.9925 14.998C38.9925 14.6153 38.8899 14.3213 38.6845 14.116C38.4792 13.9107 38.2412 13.808 37.9705 13.808C37.6999 13.808 37.4619 13.9107 37.2565 14.116C37.0512 14.3213 36.9485 14.6153 36.9485 14.998C36.9485 15.3713 37.0512 15.6653 37.2565 15.88C37.4619 16.0853 37.6999 16.188 37.9705 16.188Z" fill="#01653B"/>
</svg>
