<svg width="48" height="24" viewBox="0 0 48 24" fill="none" xmlns="http://www.w3.org/2000/svg">
<rect width="48" height="24" rx="12" fill="#FED1D1"/>
<path d="M9.00294 12.73V11.47H13.8189V12.73H9.00294ZM16.5295 17V15.67H18.9515V8.95L16.6415 9.37V8.166L19.5255 7.2H20.4355V15.67H23.0395V17H16.5295ZM28.186 17.168C27.5047 17.168 26.912 17.042 26.408 16.79C25.904 16.538 25.5073 16.1927 25.218 15.754C24.938 15.3153 24.7747 14.8207 24.728 14.27H26.24C26.3333 14.7273 26.548 15.096 26.884 15.376C27.2293 15.656 27.668 15.796 28.2 15.796C28.8253 15.796 29.32 15.6 29.684 15.208C30.048 14.8067 30.23 14.2933 30.23 13.668C30.23 13.0053 30.0433 12.492 29.67 12.128C29.2967 11.764 28.8207 11.582 28.242 11.582C27.7753 11.582 27.3787 11.6893 27.052 11.904C26.7253 12.1187 26.4687 12.3893 26.282 12.716H24.854L25.694 7.2H31.028V8.572H26.842L26.366 11.078H26.464C26.66 10.854 26.9213 10.6673 27.248 10.518C27.584 10.3687 27.9807 10.294 28.438 10.294C29.11 10.294 29.684 10.4387 30.16 10.728C30.6453 11.0173 31.0187 11.4187 31.28 11.932C31.5413 12.436 31.672 13.01 31.672 13.654C31.672 14.3073 31.5273 14.9 31.238 15.432C30.958 15.964 30.5567 16.3887 30.034 16.706C29.5113 17.014 28.8953 17.168 28.186 17.168ZM34.7185 11.372C34.1119 11.372 33.6125 11.176 33.2205 10.784C32.8285 10.392 32.6325 9.86467 32.6325 9.202C32.6325 8.53933 32.8285 8.012 33.2205 7.62C33.6125 7.228 34.1119 7.032 34.7185 7.032C35.3252 7.032 35.8245 7.228 36.2165 7.62C36.6085 8.012 36.8045 8.53933 36.8045 9.202C36.8045 9.86467 36.6085 10.392 36.2165 10.784C35.8245 11.176 35.3252 11.372 34.7185 11.372ZM34.7185 10.392C34.9892 10.392 35.2272 10.2893 35.4325 10.084C35.6379 9.86933 35.7405 9.57533 35.7405 9.202C35.7405 8.81933 35.6379 8.52533 35.4325 8.32C35.2272 8.11467 34.9892 8.012 34.7185 8.012C34.4479 8.012 34.2099 8.11467 34.0045 8.32C33.7992 8.52533 33.6965 8.81933 33.6965 9.202C33.6965 9.57533 33.7992 9.86933 34.0045 10.084C34.2099 10.2893 34.4479 10.392 34.7185 10.392ZM33.3885 16.174L32.6185 15.418L39.8005 8.026L40.5705 8.782L33.3885 16.174ZM38.4705 17.168C37.8639 17.168 37.3645 16.972 36.9725 16.58C36.5805 16.188 36.3845 15.6607 36.3845 14.998C36.3845 14.3353 36.5805 13.808 36.9725 13.416C37.3645 13.024 37.8639 12.828 38.4705 12.828C39.0772 12.828 39.5765 13.024 39.9685 13.416C40.3605 13.808 40.5565 14.3353 40.5565 14.998C40.5565 15.6607 40.3605 16.188 39.9685 16.58C39.5765 16.972 39.0772 17.168 38.4705 17.168ZM38.4705 16.188C38.7412 16.188 38.9792 16.0853 39.1845 15.88C39.3899 15.6653 39.4925 15.3713 39.4925 14.998C39.4925 14.6153 39.3899 14.3213 39.1845 14.116C38.9792 13.9107 38.7412 13.808 38.4705 13.808C38.1999 13.808 37.9619 13.9107 37.7565 14.116C37.5512 14.3213 37.4485 14.6153 37.4485 14.998C37.4485 15.3713 37.5512 15.6653 37.7565 15.88C37.9619 16.0853 38.1999 16.188 38.4705 16.188Z" fill="#EC0C0C"/>
</svg>
